<svg xmlns="http://www.w3.org/2000/svg" xmlns:svg="http://www.w3.org/2000/svg" id="svg2" width="86" height="86" x="0" y="0" enable-background="new 0 0 86 86" version="1.1" viewBox="0 0 86 86" xml:space="preserve"><metadata id="metadata21"/><g id="Layer_1"><linearGradient id="SVGID_1_" x1=".717" x2="73.194" y1="85.283" y2="12.807" gradientUnits="userSpaceOnUse"><stop style="stop-color:#1c8c79;stop-opacity:1" id="stop7" offset="0"/><stop style="stop-color:#08c0cc;stop-opacity:1" id="stop9" offset="1"/></linearGradient><path id="path11" d="M 43,0.3 C 19.418,0.3 0.3,19.418 0.3,43 0.15974003,66.0767 19,86 43,85.7 66.585,85.7 85.7,66.582 85.7,43 85.7,19.418 66.585,0.3 43,0.3 z" style="fill:#08c0cc;fill-opacity:1"/><path style="opacity:.9;fill:#f4f3c5" id="path13" d="M 33.96875 12.125 C 33.509547 12.121281 33.04375 12.21975 32.59375 12.40625 L 28.71875 14 C 26.97575 14.723 26.0895 16.875 26.8125 18.625 L 27.71875 20.8125 C 27.95075 21.3715 27.93975 21.967 27.71875 22.5 C 27.58075 22.834 27.3585 23.136 27.0625 23.375 C 25.7165 24.466 24.472 25.7135 23.375 27.0625 C 22.754 27.8275 21.69125 28.09475 20.78125 27.71875 L 18.625 26.8125 C 16.824 26.0665 14.746 26.91675 14 28.71875 L 12.40625 32.59375 C 11.66025 34.39475 12.5105 36.47275 14.3125 37.21875 L 16.5 38.125 C 17.41 38.502 17.94575 39.42625 17.84375 40.40625 C 17.66475 42.13525 17.66275 43.86975 17.84375 45.59375 C 17.94575 46.57375 17.409 47.497 16.5 47.875 L 14.3125 48.78125 C 12.5705 49.50325 11.68425 51.65825 12.40625 53.40625 L 14 57.28125 C 14.746 59.08125 16.823 59.9325 18.625 59.1875 L 20.8125 58.28125 C 21.7225 57.90425 22.755 58.1705 23.375 58.9375 C 24.466 60.2835 25.7125 61.529 27.0625 62.625 C 27.8265 63.246 28.09575 64.2775 27.71875 65.1875 L 26.8125 67.375 C 26.0665 69.176 26.91675 71.254 28.71875 72 L 32.59375 73.59375 C 34.39675 74.33875 36.47275 73.4885 37.21875 71.6875 L 38.125 69.5 C 38.501 68.59 39.42625 68.05425 40.40625 68.15625 C 42.13525 68.33625 43.86975 68.33625 45.59375 68.15625 C 46.57375 68.05325 47.498 68.59 47.875 69.5 L 48.78125 71.6875 C 49.52625 73.4855 51.60625 74.33975 53.40625 73.59375 L 57.28125 72 C 59.02625 71.276 59.9095 69.124 59.1875 67.375 L 58.28125 65.1875 C 57.90425 64.2765 58.1705 63.245 58.9375 62.625 C 60.2835 61.534 61.528 60.2875 62.625 58.9375 C 63.246 58.1725 64.2775 57.90525 65.1875 58.28125 L 67.375 59.1875 C 69.175 59.9335 71.254 59.08325 72 57.28125 L 73.59375 53.40625 C 74.34075 51.60525 73.4895 49.52725 71.6875 48.78125 L 69.5 47.875 C 68.59 47.498 68.05425 46.57375 68.15625 45.59375 C 68.33625 43.86475 68.33625 42.13025 68.15625 40.40625 C 68.05125 39.42625 68.589 38.503 69.5 38.125 L 71.6875 37.21875 C 73.4285 36.49775 74.31575 34.34175 73.59375 32.59375 L 72 28.71875 C 71.254 26.91975 69.177 26.0675 67.375 26.8125 L 65.1875 27.71875 C 64.2775 28.09575 63.245 27.8285 62.625 27.0625 C 61.533 25.7165 60.2865 24.47 58.9375 23.375 C 58.1735 22.754 57.90425 21.7225 58.28125 20.8125 L 59.1875 18.625 C 59.9335 16.824 59.08325 14.746 57.28125 14 L 53.40625 12.40625 C 51.60525 11.66025 49.52725 12.5115 48.78125 14.3125 L 47.875 16.5 C 47.499 17.41 46.57375 17.94575 45.59375 17.84375 C 43.86575 17.66375 42.12925 17.66375 40.40625 17.84375 C 39.42625 17.94675 38.502 17.41 38.125 16.5 L 37.21875 14.3125 C 36.66 12.964 35.346359 12.136156 33.96875 12.125 z M 59.0625 35 C 59.874008 35.000017 60.676549 35.084251 61.46875 35.28125 C 62.260933 35.478283 62.920337 35.734009 63.5 36.03125 L 63.5 39.59375 L 63.1875 39.59375 C 62.690644 39.096031 62.064166 38.67904 61.34375 38.34375 C 60.623316 38.008485 59.875781 37.843763 59.125 37.84375 C 58.86001 37.843763 58.605968 37.861332 58.34375 37.90625 C 58.08152 37.951201 57.836647 38.031829 57.59375 38.15625 C 57.378446 38.259962 57.185819 38.414168 57.03125 38.625 C 56.876672 38.835857 56.812496 39.074157 56.8125 39.34375 C 56.812496 39.751624 56.939072 40.063503 57.1875 40.28125 C 57.435918 40.499018 57.903681 40.695274 58.59375 40.875 C 59.046425 40.99253 59.458195 41.108153 59.875 41.21875 C 60.291791 41.329366 60.738458 41.493947 61.21875 41.6875 C 62.162747 42.074633 62.862569 42.61416 63.3125 43.28125 C 63.762411 43.948356 63.999988 44.810412 64 45.875 C 63.999988 47.39585 63.498313 48.611973 62.46875 49.5625 C 61.439167 50.513029 60.016555 51 58.25 51 C 57.228702 51 56.352816 50.88092 55.59375 50.65625 C 54.834679 50.43158 54.13121 50.158148 53.46875 49.8125 L 53.46875 46.09375 L 53.8125 46.09375 C 54.469438 46.750483 55.185723 47.272444 56 47.625 C 56.81427 47.977563 57.624206 48.156252 58.375 48.15625 C 58.568212 48.156252 58.810325 48.135232 59.125 48.09375 C 59.439663 48.052279 59.707505 47.971783 59.90625 47.875 C 60.149145 47.750569 60.342658 47.592902 60.5 47.40625 C 60.657326 47.219604 60.718742 46.96014 60.71875 46.59375 C 60.718742 46.255021 60.604093 45.964165 60.375 45.71875 C 60.145891 45.473347 59.816633 45.287602 59.375 45.15625 C 58.911272 45.017997 58.422412 44.870983 57.90625 44.75 C 57.390078 44.629031 56.921428 44.467905 56.46875 44.28125 C 55.430893 43.859567 54.67419 43.284909 54.21875 42.5625 C 53.763308 41.840106 53.531249 40.946515 53.53125 39.875 C 53.531249 38.437121 54.032924 37.284065 55.0625 36.375 C 56.092071 35.465963 57.444987 35.000017 59.0625 35 z M 22 35.28125 L 25.6875 35.28125 L 28.46875 43.03125 L 31.21875 35.28125 L 34.9375 35.28125 L 34.9375 50.71875 L 31.75 50.71875 L 31.75 40.375 L 29.46875 47.09375 L 27.28125 47.09375 L 25 40.375 L 25 50.71875 L 22 50.71875 L 22 35.28125 z M 38.0625 35.28125 L 41.75 35.28125 L 44.53125 43.03125 L 47.3125 35.28125 L 51 35.28125 L 51 50.71875 L 47.8125 50.71875 L 47.8125 40.375 L 45.53125 47.09375 L 43.34375 47.09375 L 41.0625 40.375 L 41.0625 50.71875 L 38.0625 50.71875 L 38.0625 35.28125 z"/></g></svg>